<svg xmlns="http://www.w3.org/2000/svg" viewBox="0 0 120 120" role="img" aria-label="Mongolia flag">
  <defs>
    <clipPath id="flagCircle">
      <circle cx="60" cy="60" r="55"/>
    </clipPath>
  </defs>
  <circle cx="60" cy="60" r="57" fill="#ffffff"/>
  <g clip-path="url(#flagCircle)">
    <rect width="40" height="120" fill="#ee1c25"/>
    <rect x="40" width="40" height="120" fill="#1474bc"/>
    <rect x="80" width="40" height="120" fill="#ee1c25"/>
    <g fill="#ffd21f" transform="translate(14 26)">
      <circle cx="13" cy="7" r="5"/>
      <path d="M13 15 8 25h10Z"/>
      <rect x="7" y="28" width="12" height="16" rx="1"/>
      <circle cx="13" cy="36" r="4" fill="#ee1c25"/>
      <path d="M13 31a5 5 0 0 1 0 10 5 5 0 0 0 0-10Z"/>
      <path d="M6 48h14l-7 8Z"/>
      <path d="M6 63h14l-7-8Z"/>
      <rect x="0" y="29" width="4" height="35"/>
      <rect x="22" y="29" width="4" height="35"/>
    </g>
  </g>
</svg>
