<svg xmlns="http://www.w3.org/2000/svg" viewBox="0 0 120 120" role="img" aria-label="MULS mark">
  <circle cx="60" cy="60" r="56" fill="#075735" stroke="#ffd91f" stroke-width="6"/>
  <circle cx="60" cy="60" r="46" fill="none" stroke="#ffd91f" stroke-width="2"/>
  <path d="M24 39c14-14 32-21 54-20" fill="none" stroke="#ffd91f" stroke-width="5" stroke-linecap="round"/>
  <path d="M28 47c13-11 29-16 50-15" fill="none" stroke="#ffd91f" stroke-width="4" stroke-linecap="round"/>
  <path d="M34 55c11-8 25-12 42-11" fill="none" stroke="#ffd91f" stroke-width="3" stroke-linecap="round"/>
  <path d="M31 79c9-19 22-29 39-31 13-2 24 3 32 14-11-5-22-4-32 3-11 7-24 13-39 14Z" fill="#ffd91f"/>
  <path d="M31 78c11-6 20-12 27-19 6-6 15-9 27-8-14 6-24 15-31 27Z" fill="#075735" opacity="0.23"/>
  <text x="60" y="64" text-anchor="middle" font-family="Georgia,serif" font-size="23" font-weight="700" fill="#ffd91f">ХААИС</text>
</svg>
